<svg width="12" height="20" viewBox="0 0 12 20" fill="none" xmlns="http://www.w3.org/2000/svg">
<path d="M8.26972 19.5067L0.466496 11.2556C0.296861 11.0762 0.176986 10.8819 0.10687 10.6726C0.0367538 10.4634 0.0011309 10.2392 0 10C0 9.76084 0.0356229 9.53662 0.10687 9.32735C0.178117 9.11809 0.297992 8.92377 0.466496 8.74439L8.26972 0.493273C8.58072 0.164424 8.97653 0 9.45717 0C9.9378 0 10.3336 0.164424 10.6446 0.493273C10.9556 0.822122 11.1111 1.24066 11.1111 1.74888C11.1111 2.2571 10.9556 2.67564 10.6446 3.00448L4.02884 10L10.6446 16.9955C10.9556 17.3244 11.1111 17.7429 11.1111 18.2511C11.1111 18.7593 10.9556 19.1779 10.6446 19.5067C10.3336 19.8356 9.9378 20 9.45717 20C8.97653 20 8.58072 19.8356 8.26972 19.5067Z" fill="white"/>
</svg>
