<svg width="19" height="31" viewBox="0 0 19 31" fill="none" xmlns="http://www.w3.org/2000/svg">
<path d="M0.756249 29.6452C0.252082 29.1455 0 28.5094 0 27.7371C0 26.9647 0.252082 26.3286 0.756249 25.8288L11.4813 15.1974L0.756249 4.56605C0.252082 4.06628 0 3.43022 0 2.65785C0 1.88548 0.252082 1.24942 0.756249 0.749649C1.26042 0.249882 1.90208 0 2.68125 0C3.46042 0 4.10208 0.249882 4.60625 0.749649L17.2563 13.2893C17.5312 13.5619 17.7265 13.8572 17.842 14.1752C17.9575 14.4932 18.0143 14.834 18.0125 15.1974C18.0125 15.5609 17.9548 15.9017 17.8393 16.2197C17.7238 16.5377 17.5294 16.833 17.2563 17.1056L4.60625 29.6452C4.10208 30.145 3.46042 30.3949 2.68125 30.3949C1.90208 30.3949 1.26042 30.145 0.756249 29.6452Z" fill="white"/>
</svg>
