<svg width="18" height="22" viewBox="0 0 18 22" fill="none" xmlns="http://www.w3.org/2000/svg">
<path d="M2.50065 21.8346C1.90482 21.8346 1.39457 21.6223 0.969903 21.1976C0.545236 20.773 0.333264 20.2631 0.333986 19.668V2.33464C0.333986 1.7388 0.546319 1.22855 0.970986 0.803887C1.39565 0.37922 1.90554 0.167248 2.50065 0.167971H10.2736C10.5625 0.167971 10.838 0.222137 11.1002 0.330471C11.3623 0.438804 11.5923 0.592276 11.7902 0.790887L17.0444 6.04505C17.243 6.24367 17.3965 6.47405 17.5048 6.73622C17.6132 6.99839 17.6673 7.27355 17.6673 7.56172V19.668C17.6673 20.2638 17.455 20.7741 17.0303 21.1987C16.6057 21.6234 16.0958 21.8354 15.5007 21.8346H2.50065ZM10.084 6.66797C10.084 6.97491 10.188 7.23239 10.396 7.44039C10.604 7.64839 10.8611 7.75203 11.1673 7.7513H15.5007L10.084 2.33464V6.66797ZM7.91732 14.2513V16.418C7.91732 16.7249 8.02132 16.9824 8.22932 17.1904C8.43732 17.3984 8.69443 17.502 9.00065 17.5013C9.3076 17.5013 9.56507 17.3973 9.77307 17.1893C9.98107 16.9813 10.0847 16.7242 10.084 16.418V14.2513H12.2507C12.5576 14.2513 12.8151 14.1473 13.0231 13.9393C13.2311 13.7313 13.3347 13.4742 13.334 13.168C13.334 12.861 13.23 12.6036 13.022 12.3956C12.814 12.1876 12.5569 12.0839 12.2507 12.0846H10.084V9.91797C10.084 9.61103 9.97999 9.35355 9.77199 9.14555C9.56399 8.93755 9.30688 8.83391 9.00065 8.83464C8.69371 8.83464 8.43624 8.93864 8.22824 9.14664C8.02024 9.35464 7.9166 9.61175 7.91732 9.91797V12.0846H5.75065C5.44371 12.0846 5.18624 12.1886 4.97824 12.3966C4.77024 12.6046 4.6666 12.8617 4.66732 13.168C4.66732 13.4749 4.77132 13.7324 4.97932 13.9404C5.18732 14.1484 5.44443 14.252 5.75065 14.2513H7.91732Z" fill="#333333"/>
</svg>
