<svg width="14" height="18" viewBox="0 0 14 18" fill="none" xmlns="http://www.w3.org/2000/svg">
<path d="M6.16732 11.4994V13.166C6.16732 13.4021 6.24732 13.6002 6.40732 13.7602C6.56732 13.9202 6.7651 13.9999 7.00065 13.9994C7.23676 13.9994 7.43482 13.9193 7.59482 13.7593C7.75482 13.5993 7.83454 13.4016 7.83399 13.166V11.4994H9.50065C9.73676 11.4994 9.93482 11.4194 10.0948 11.2593C10.2548 11.0993 10.3345 10.9016 10.334 10.666C10.334 10.4299 10.254 10.2318 10.094 10.0718C9.93399 9.91185 9.73621 9.83213 9.50065 9.83268H7.83399V8.16602C7.83399 7.92991 7.75399 7.73185 7.59399 7.57185C7.43399 7.41185 7.23621 7.33213 7.00065 7.33268C6.76454 7.33268 6.56649 7.41268 6.40649 7.57268C6.24649 7.73268 6.16676 7.93046 6.16732 8.16602V9.83268H4.50065C4.26454 9.83268 4.06649 9.91268 3.90649 10.0727C3.74649 10.2327 3.66676 10.4305 3.66732 10.666C3.66732 10.9021 3.74732 11.1002 3.90732 11.2602C4.06732 11.4202 4.2651 11.4999 4.50065 11.4994H6.16732ZM2.00065 17.3327C1.54232 17.3327 1.14982 17.1694 0.823152 16.8427C0.496486 16.516 0.33343 16.1238 0.333986 15.666V2.33268C0.333986 1.87435 0.497319 1.48185 0.823986 1.15518C1.15065 0.828517 1.54287 0.665461 2.00065 0.666017H7.97982C8.20204 0.666017 8.41399 0.707684 8.61565 0.791017C8.81732 0.87435 8.99426 0.992406 9.14649 1.14518L13.1882 5.18685C13.3409 5.33963 13.459 5.51685 13.5423 5.71852C13.6257 5.92018 13.6673 6.13185 13.6673 6.35352V15.666C13.6673 16.1244 13.504 16.5169 13.1773 16.8435C12.8507 17.1702 12.4584 17.3332 12.0007 17.3327H2.00065ZM7.83399 5.66602V2.33268H2.00065V15.666H12.0007V6.49935H8.66732C8.43121 6.49935 8.23315 6.41935 8.07315 6.25935C7.91315 6.09935 7.83343 5.90157 7.83399 5.66602Z" fill="#333333"/>
</svg>
