<svg width="17" height="19" viewBox="0 0 17 19" fill="none" xmlns="http://www.w3.org/2000/svg">
<path d="M0.419285 8.46183C0.698807 8.15394 1.05456 8 1.48655 8C1.91854 8 2.27429 8.15394 2.55381 8.46183L8.5 15.0114L14.4462 8.46183C14.7257 8.15394 15.0815 8 15.5135 8C15.9454 8 16.3012 8.15394 16.5807 8.46183C16.8602 8.76972 17 9.16157 17 9.6374C17 10.1132 16.8602 10.5051 16.5807 10.813L9.56727 18.5381C9.4148 18.7061 9.24963 18.8253 9.07175 18.8959C8.89387 18.9664 8.70329 19.0011 8.5 19C8.29671 19 8.10613 18.9647 7.92825 18.8942C7.75037 18.8236 7.5852 18.705 7.43274 18.5381L0.419285 10.813C0.139763 10.5051 0 10.1132 0 9.6374C0 9.16157 0.139763 8.76972 0.419285 8.46183Z" fill="#38373C"/>
<path d="M0.419285 0.46183C0.698807 0.153943 1.05456 0 1.48655 0C1.91854 0 2.27429 0.153943 2.55381 0.46183L8.5 7.01143L14.4462 0.46183C14.7257 0.153943 15.0815 0 15.5135 0C15.9454 0 16.3012 0.153943 16.5807 0.46183C16.8602 0.769718 17 1.16157 17 1.6374C17 2.11323 16.8602 2.50508 16.5807 2.81297L9.56727 10.5381C9.4148 10.7061 9.24963 10.8253 9.07175 10.8959C8.89387 10.9664 8.70329 11.0011 8.5 11C8.29671 11 8.10613 10.9647 7.92825 10.8942C7.75037 10.8236 7.5852 10.705 7.43274 10.5381L0.419285 2.81297C0.139763 2.50508 0 2.11323 0 1.6374C0 1.16157 0.139763 0.769718 0.419285 0.46183Z" fill="#CCCCCC"/>
</svg>
