<svg width="36" height="36" viewBox="0 0 36 36" fill="none" xmlns="http://www.w3.org/2000/svg">
<path d="M35.3804 12.4631L32.1051 9.18786C31.8409 8.92717 31.4885 8.77495 31.1176 8.76121C30.7467 8.74748 30.384 8.87322 30.1012 9.11364C29.6646 9.48528 29.1043 9.67933 28.5314 9.65734C27.9584 9.63535 27.4146 9.39891 27.0078 8.99489C26.604 8.58809 26.3677 8.04446 26.3457 7.47169C26.3237 6.89891 26.5176 6.33877 26.889 5.9022C27.1295 5.61939 27.2552 5.25676 27.2415 4.88582C27.2277 4.51487 27.0755 4.16254 26.8148 3.89829L23.5366 0.619306C23.2595 0.342797 22.8841 0.1875 22.4927 0.1875C22.1013 0.1875 21.7258 0.342797 21.4488 0.619306L16.2275 5.83985C15.9052 6.16337 15.662 6.55711 15.5172 6.99024C15.489 7.07352 15.442 7.14918 15.3799 7.21135C15.3177 7.27352 15.242 7.32052 15.1588 7.34872C14.7254 7.49353 14.3317 7.73692 14.0084 8.05974L0.619306 21.4488C0.342797 21.7258 0.1875 22.1013 0.1875 22.4927C0.1875 22.8841 0.342797 23.2595 0.619306 23.5366L3.89829 26.8118C4.16254 27.0725 4.51487 27.2248 4.88582 27.2385C5.25676 27.2522 5.61939 27.1265 5.9022 26.8861C6.33778 26.5114 6.89884 26.3152 7.47297 26.3368C8.0471 26.3583 8.59188 26.5961 8.99814 27.0023C9.40439 27.4086 9.64212 27.9533 9.66368 28.5275C9.68524 29.1016 9.48903 29.6627 9.11438 30.0983C8.87396 30.3811 8.74822 30.7437 8.76196 31.1146C8.77569 31.4856 8.92792 31.8379 9.1886 32.1022L12.4639 35.3774C12.7409 35.6539 13.1163 35.8092 13.5078 35.8092C13.8992 35.8092 14.2746 35.6539 14.5517 35.3774L27.9407 21.9884C28.2634 21.6652 28.5067 21.2717 28.6517 20.8387C28.6798 20.7552 28.7268 20.6793 28.7892 20.6169C28.8515 20.5546 28.9274 20.5076 29.0109 20.4795C29.4439 20.3347 29.8373 20.0916 30.1606 19.7692L35.3811 14.5479C35.6567 14.2709 35.8112 13.8961 35.8111 13.5054C35.811 13.1147 35.6561 12.74 35.3804 12.4631ZM18.4311 10.2625C18.3208 10.3728 18.1899 10.4603 18.0458 10.52C17.9017 10.5797 17.7472 10.6105 17.5913 10.6105C17.4353 10.6105 17.2809 10.5797 17.1368 10.52C16.9927 10.4603 16.8618 10.3728 16.7515 10.2625L15.8972 9.40829C15.68 9.18447 15.5595 8.88414 15.5618 8.57221C15.5642 8.26028 15.6892 7.9618 15.9098 7.74128C16.1304 7.52075 16.4289 7.39589 16.7409 7.39368C17.0528 7.39147 17.3531 7.51209 17.5768 7.72946L18.4311 8.58298C18.5414 8.69325 18.6289 8.82417 18.6886 8.96826C18.7482 9.11236 18.779 9.2668 18.779 9.42276C18.779 9.57873 18.7482 9.73317 18.6886 9.87726C18.6289 10.0214 18.5414 10.1523 18.4311 10.2625ZM21.6967 13.5282C21.474 13.7507 21.1721 13.8757 20.8573 13.8757C20.5425 13.8757 20.2405 13.7507 20.0179 13.5282L19.2015 12.7118C19.0912 12.6015 19.0037 12.4706 18.944 12.3265C18.8843 12.1824 18.8536 12.0279 18.8536 11.872C18.8536 11.716 18.8843 11.5616 18.944 11.4175C19.0037 11.2734 19.0912 11.1425 19.2015 11.0322C19.4242 10.8095 19.7263 10.6843 20.0412 10.6843C20.1972 10.6843 20.3516 10.7151 20.4957 10.7748C20.6398 10.8344 20.7707 10.9219 20.881 11.0322L21.6974 11.8486C21.8081 11.9589 21.8959 12.0899 21.9559 12.2342C22.0159 12.3784 22.0468 12.5331 22.0468 12.6893C22.0469 12.8456 22.0161 13.0003 21.9563 13.1446C21.8965 13.2889 21.8088 13.42 21.6982 13.5304L21.6967 13.5282ZM24.9623 16.7938C24.852 16.9041 24.7211 16.9916 24.577 17.0513C24.4329 17.111 24.2785 17.1417 24.1225 17.1417C23.9666 17.1417 23.8121 17.111 23.668 17.0513C23.5239 16.9916 23.393 16.9041 23.2827 16.7938L22.4663 15.9774C22.2491 15.7536 22.1286 15.4532 22.1309 15.1413C22.1333 14.8294 22.2583 14.5309 22.4789 14.3104C22.6995 14.0899 22.998 13.965 23.31 13.9628C23.6219 13.9606 23.9222 14.0812 24.1459 14.2986L24.9623 15.115C25.0733 15.2251 25.1615 15.356 25.2217 15.5002C25.282 15.6444 25.3132 15.7991 25.3136 15.9555C25.3139 16.1118 25.2834 16.2666 25.2237 16.4111C25.1641 16.5556 25.0765 16.6869 24.966 16.7975L24.9623 16.7938ZM28.2599 20.0995C28.1496 20.2098 28.0187 20.2973 27.8746 20.357C27.7305 20.4167 27.576 20.4474 27.4201 20.4474C27.2641 20.4474 27.1097 20.4167 26.9656 20.357C26.8215 20.2973 26.6906 20.2098 26.5803 20.0995L25.7312 19.246C25.6186 19.136 25.529 19.0048 25.4675 18.8599C25.4061 18.715 25.3741 18.5594 25.3733 18.402C25.3726 18.2446 25.4031 18.0886 25.4632 17.9431C25.5232 17.7977 25.6116 17.6656 25.7231 17.5546C25.8347 17.4436 25.9672 17.3558 26.113 17.2965C26.2587 17.2371 26.4149 17.2073 26.5722 17.2089C26.7296 17.2104 26.8851 17.2432 27.0297 17.3053C27.1743 17.3675 27.3051 17.4577 27.4145 17.5709L28.2643 18.4236C28.3746 18.534 28.462 18.6649 28.5216 18.809C28.5813 18.9532 28.6119 19.1076 28.6118 19.2636C28.6118 19.4195 28.581 19.574 28.5212 19.718C28.4615 19.8621 28.3739 19.993 28.2636 20.1032L28.2599 20.0995Z" fill="white"/>
</svg>
