<svg width="30" height="34" viewBox="0 0 30 34" fill="none" xmlns="http://www.w3.org/2000/svg">
<g clip-path="url(#clip0_373_378)">
<path d="M6.46111 2.69883C6.65765 2.14293 7.02177 1.66167 7.50328 1.32138C7.98479 0.981092 8.55999 0.79852 9.14961 0.798829H14.8496C15.4392 0.79852 16.0144 0.981092 16.4959 1.32138C16.9775 1.66167 17.3416 2.14293 17.5381 2.69883H20.5496C21.3055 2.69883 22.0304 2.99909 22.5649 3.53357C23.0993 4.06805 23.3996 4.79296 23.3996 5.54883V14.5396C22.7802 14.8056 22.2007 15.1913 21.6953 15.6967L13.7913 23.5988H5.34961C5.09765 23.5988 4.85602 23.6989 4.67786 23.8771C4.4997 24.0552 4.39961 24.2968 4.39961 24.5488C4.39961 24.8008 4.4997 25.0424 4.67786 25.2206C4.85602 25.3987 5.09765 25.4988 5.34961 25.4988H11.973C11.479 26.1505 11.1218 26.8953 10.9223 27.6933L10.2098 30.5395C10.1557 30.7557 10.1214 30.9764 10.1072 31.1988H3.44961C2.69374 31.1988 1.96883 30.8985 1.43435 30.3641C0.899876 29.8296 0.599609 29.1047 0.599609 28.3488V5.54883C0.599609 4.79296 0.899876 4.06805 1.43435 3.53357C1.96883 2.99909 2.69374 2.69883 3.44961 2.69883H6.46111ZM15.7996 3.64883C15.7996 3.39687 15.6995 3.15523 15.5214 2.97707C15.3432 2.79891 15.1016 2.69883 14.8496 2.69883H9.14961C8.89765 2.69883 8.65602 2.79891 8.47786 2.97707C8.2997 3.15523 8.19961 3.39687 8.19961 3.64883C8.19961 3.90078 8.2997 4.14242 8.47786 4.32058C8.65602 4.49874 8.89765 4.59883 9.14961 4.59883H14.8496C15.1016 4.59883 15.3432 4.49874 15.5214 4.32058C15.6995 4.14242 15.7996 3.90078 15.7996 3.64883ZM18.6496 12.1988H5.34961C5.09765 12.1988 4.85602 12.2989 4.67786 12.4771C4.4997 12.6552 4.39961 12.8969 4.39961 13.1488C4.39961 13.4008 4.4997 13.6424 4.67786 13.8206C4.85602 13.9987 5.09765 14.0988 5.34961 14.0988H18.6496C18.9016 14.0988 19.1432 13.9987 19.3214 13.8206C19.4995 13.6424 19.5996 13.4008 19.5996 13.1488C19.5996 12.8969 19.4995 12.6552 19.3214 12.4771C19.1432 12.2989 18.9016 12.1988 18.6496 12.1988ZM11.9996 18.8488C11.9996 18.5969 11.8995 18.3552 11.7214 18.1771C11.5432 17.9989 11.3016 17.8988 11.0496 17.8988H5.34961C5.09765 17.8988 4.85602 17.9989 4.67786 18.1771C4.4997 18.3552 4.39961 18.5969 4.39961 18.8488C4.39961 19.1008 4.4997 19.3424 4.67786 19.5206C4.85602 19.6987 5.09765 19.7988 5.34961 19.7988H11.0496C11.3016 19.7988 11.5432 19.6987 11.7214 19.5206C11.8995 19.3424 11.9996 19.1008 11.9996 18.8488ZM13.8616 26.2151L23.0386 17.0381C23.3687 16.7083 23.7606 16.4466 24.1918 16.2682C24.623 16.0898 25.0851 15.9981 25.5518 15.9982C26.0184 15.9984 26.4805 16.0905 26.9115 16.2693C27.3426 16.448 27.7343 16.7099 28.0641 17.04C28.394 17.3701 28.6556 17.762 28.834 18.1932C29.0124 18.6244 29.1042 19.0865 29.104 19.5531C29.1038 20.0198 29.0117 20.4819 28.833 20.9129C28.6542 21.344 28.3923 21.7357 28.0622 22.0655L18.8852 31.2406C18.3506 31.7755 17.6808 32.155 16.9472 32.3388L14.101 33.0494C13.818 33.1199 13.5216 33.1161 13.2405 33.0382C12.9594 32.9603 12.7033 32.811 12.4969 32.6049C12.2906 32.3987 12.1411 32.1427 12.0629 31.8617C11.9848 31.5807 11.9806 31.2843 12.0509 31.0012L12.7634 28.155C12.9456 27.4208 13.3254 26.7506 13.8616 26.217V26.2151Z" fill="#38373C"/>
</g>
<defs>
<clipPath id="clip0_373_378">
<rect width="30" height="34" fill="white"/>
</clipPath>
</defs>
</svg>
