<svg width="38" height="36" viewBox="0 0 38 36" fill="none" xmlns="http://www.w3.org/2000/svg">
<path d="M11.02 22.1804V10.4004H3.8C1.71 10.4004 0 12.1104 0 14.2004V25.6004C0 27.6904 1.71 29.4004 3.8 29.4004H5.7V35.1004L11.4 29.4004H20.9C22.99 29.4004 24.7 27.6904 24.7 25.6004V22.1424C24.5751 22.1692 24.4477 22.1826 24.32 22.1823H11.02V22.1804ZM34.2 0.900391H17.1C15.01 0.900391 13.3 2.61039 13.3 4.70039V19.9004H26.6L32.3 25.6004V19.9004H34.2C36.29 19.9004 38 18.1923 38 16.1004V4.70039C38 2.61039 36.29 0.900391 34.2 0.900391Z" fill="white"/>
</svg>
