<svg width="32" height="34" viewBox="0 0 32 34" fill="none" xmlns="http://www.w3.org/2000/svg">
<path d="M13.9992 0.799805C11.9836 0.799805 10.0505 1.60052 8.62521 3.02579C7.19993 4.45107 6.39922 6.38416 6.39922 8.3998C6.39922 10.4154 7.19993 12.3485 8.62521 13.7738C10.0505 15.1991 11.9836 15.9998 13.9992 15.9998C16.0149 15.9998 17.948 15.1991 19.3732 13.7738C20.7985 12.3485 21.5992 10.4154 21.5992 8.3998C21.5992 6.38416 20.7985 4.45107 19.3732 3.02579C17.948 1.60052 16.0149 0.799805 13.9992 0.799805ZM4.51632 17.8998C4.01593 17.8978 3.52006 17.9946 3.05716 18.1846C2.59427 18.3747 2.17344 18.6543 1.81881 19.0073C1.46419 19.3603 1.18274 19.7799 0.990615 20.2419C0.79849 20.704 0.699465 21.1994 0.699219 21.6998C0.699219 24.9127 2.28192 27.3352 4.75572 28.9141C6.81912 30.2289 9.49242 30.9566 12.4051 31.1485C12.2017 30.5534 12.0984 29.9287 12.0992 29.2998V21.6998C12.0992 20.2406 12.6483 18.9068 13.5508 17.8998H4.51632ZM13.9992 21.6998C13.9992 20.692 14.3996 19.7254 15.1122 19.0128C15.8249 18.3002 16.7914 17.8998 17.7992 17.8998H27.2992C28.307 17.8998 29.2736 18.3002 29.9862 19.0128C30.6989 19.7254 31.0992 20.692 31.0992 21.6998V29.2998C31.0992 30.3076 30.6989 31.2742 29.9862 31.9868C29.2736 32.6994 28.307 33.0998 27.2992 33.0998H17.7992C16.7914 33.0998 15.8249 32.6994 15.1122 31.9868C14.3996 31.2742 13.9992 30.3076 13.9992 29.2998V21.6998ZM26.3492 27.3998H18.7492C18.4973 27.3998 18.2556 27.4999 18.0775 27.678C17.8993 27.8562 17.7992 28.0978 17.7992 28.3498C17.7992 28.6018 17.8993 28.8434 18.0775 29.0216C18.2556 29.1997 18.4973 29.2998 18.7492 29.2998H26.3492C26.6012 29.2998 26.8428 29.1997 27.021 29.0216C27.1991 28.8434 27.2992 28.6018 27.2992 28.3498C27.2992 28.0978 27.1991 27.8562 27.021 27.678C26.8428 27.4999 26.6012 27.3998 26.3492 27.3998ZM18.7492 21.6998C18.4973 21.6998 18.2556 21.7999 18.0775 21.9781C17.8993 22.1562 17.7992 22.3978 17.7992 22.6498C17.7992 22.9018 17.8993 23.1434 18.0775 23.3216C18.2556 23.4997 18.4973 23.5998 18.7492 23.5998H26.3492C26.6012 23.5998 26.8428 23.4997 27.021 23.3216C27.1991 23.1434 27.2992 22.9018 27.2992 22.6498C27.2992 22.3978 27.1991 22.1562 27.021 21.9781C26.8428 21.7999 26.6012 21.6998 26.3492 21.6998H18.7492Z" fill="white"/>
</svg>
