<svg width="30" height="34" viewBox="0 0 30 34" fill="none" xmlns="http://www.w3.org/2000/svg">
<path d="M6.46111 2.69981C6.65765 2.14391 7.02177 1.66265 7.50328 1.32236C7.98479 0.982068 8.55999 0.799496 9.14961 0.799805H14.8496C15.4392 0.799496 16.0144 0.982068 16.4959 1.32236C16.9775 1.66265 17.3416 2.14391 17.5381 2.69981H20.5496C21.3055 2.69981 22.0304 3.00007 22.5649 3.53455C23.0993 4.06903 23.3996 4.79394 23.3996 5.54981V14.5406C22.7802 14.8066 22.2007 15.1923 21.6953 15.6977L13.7913 23.5998H5.34961C5.09765 23.5998 4.85602 23.6999 4.67786 23.8781C4.4997 24.0562 4.39961 24.2978 4.39961 24.5498C4.39961 24.8018 4.4997 25.0434 4.67786 25.2216C4.85602 25.3997 5.09765 25.4998 5.34961 25.4998H11.973C11.479 26.1515 11.1218 26.8963 10.9223 27.6943L10.2098 30.5405C10.1557 30.7567 10.1214 30.9774 10.1072 31.1998H3.44961C2.69374 31.1998 1.96883 30.8995 1.43435 30.3651C0.899876 29.8306 0.599609 29.1057 0.599609 28.3498V5.54981C0.599609 4.79394 0.899876 4.06903 1.43435 3.53455C1.96883 3.00007 2.69374 2.69981 3.44961 2.69981H6.46111ZM15.7996 3.64981C15.7996 3.39785 15.6995 3.15621 15.5214 2.97805C15.3432 2.79989 15.1016 2.69981 14.8496 2.69981H9.14961C8.89765 2.69981 8.65602 2.79989 8.47786 2.97805C8.2997 3.15621 8.19961 3.39785 8.19961 3.64981C8.19961 3.90176 8.2997 4.1434 8.47786 4.32156C8.65602 4.49972 8.89765 4.59981 9.14961 4.59981H14.8496C15.1016 4.59981 15.3432 4.49972 15.5214 4.32156C15.6995 4.1434 15.7996 3.90176 15.7996 3.64981ZM18.6496 12.1998H5.34961C5.09765 12.1998 4.85602 12.2999 4.67786 12.4781C4.4997 12.6562 4.39961 12.8979 4.39961 13.1498C4.39961 13.4018 4.4997 13.6434 4.67786 13.8216C4.85602 13.9997 5.09765 14.0998 5.34961 14.0998H18.6496C18.9016 14.0998 19.1432 13.9997 19.3214 13.8216C19.4995 13.6434 19.5996 13.4018 19.5996 13.1498C19.5996 12.8979 19.4995 12.6562 19.3214 12.4781C19.1432 12.2999 18.9016 12.1998 18.6496 12.1998ZM11.9996 18.8498C11.9996 18.5979 11.8995 18.3562 11.7214 18.1781C11.5432 17.9999 11.3016 17.8998 11.0496 17.8998H5.34961C5.09765 17.8998 4.85602 17.9999 4.67786 18.1781C4.4997 18.3562 4.39961 18.5979 4.39961 18.8498C4.39961 19.1018 4.4997 19.3434 4.67786 19.5216C4.85602 19.6997 5.09765 19.7998 5.34961 19.7998H11.0496C11.3016 19.7998 11.5432 19.6997 11.7214 19.5216C11.8995 19.3434 11.9996 19.1018 11.9996 18.8498ZM13.8616 26.2161L23.0386 17.0391C23.3687 16.7093 23.7606 16.4476 24.1918 16.2692C24.623 16.0908 25.0851 15.9991 25.5518 15.9992C26.0184 15.9994 26.4805 16.0915 26.9115 16.2703C27.3426 16.449 27.7343 16.7109 28.0641 17.041C28.394 17.3711 28.6556 17.763 28.834 18.1942C29.0124 18.6254 29.1042 19.0875 29.104 19.5541C29.1038 20.0208 29.0117 20.4829 28.833 20.9139C28.6542 21.345 28.3923 21.7367 28.0622 22.0665L18.8852 31.2416C18.3506 31.7765 17.6808 32.156 16.9472 32.3398L14.101 33.0504C13.818 33.1209 13.5216 33.1171 13.2405 33.0392C12.9594 32.9613 12.7033 32.812 12.4969 32.6059C12.2906 32.3997 12.1411 32.1437 12.0629 31.8627C11.9848 31.5817 11.9806 31.2853 12.0509 31.0022L12.7634 28.156C12.9456 27.4218 13.3254 26.7516 13.8616 26.218V26.2161Z" fill="white"/>
</svg>
