<svg width="52" height="52" viewBox="0 0 52 52" fill="none" xmlns="http://www.w3.org/2000/svg">
<circle cx="26" cy="26" r="26" fill="white"/>
<path d="M10.4004 41.1218C10.4004 39.7789 11.404 38.644 12.7404 38.4958C22.7699 37.3856 29.2764 37.4857 39.2838 38.5205C39.7835 38.573 40.2572 38.7699 40.6468 39.0871C41.0365 39.4043 41.3254 39.8282 41.4782 40.3069C41.6309 40.7856 41.641 41.2984 41.5071 41.7827C41.3732 42.267 41.1011 42.7019 40.7242 43.0341C28.9137 53.3288 22.1641 53.1871 11.2324 43.0445C10.6994 42.5505 10.4004 41.8472 10.4004 41.1218Z" fill="#38373C"/>
<path fill-rule="evenodd" clip-rule="evenodd" d="M39.1491 39.8087C29.221 38.7817 22.8081 38.6855 12.8813 39.784C12.5546 39.8221 12.2533 39.9793 12.0353 40.2257C11.8172 40.472 11.6977 40.7901 11.6996 41.1191C11.6996 41.4909 11.8543 41.8432 12.1156 42.0876C17.534 47.1134 21.6394 49.3845 25.6525 49.3988C29.6799 49.4131 34.0063 47.1602 39.8693 42.0512C40.0556 41.8854 40.1897 41.6691 40.2553 41.4285C40.3209 41.1879 40.3152 40.9335 40.2389 40.6961C40.1627 40.4587 40.019 40.2486 39.8256 40.0913C39.6321 39.934 39.3971 39.8349 39.1491 39.8087ZM12.5966 37.1996C22.7314 36.0777 29.3328 36.1791 39.4182 37.223C40.17 37.3015 40.8826 37.5974 41.4688 38.0747C42.055 38.5519 42.4893 39.1897 42.7186 39.9099C42.9478 40.6302 42.9621 41.4017 42.7597 42.13C42.7186 43.5 40.807 46.0014 40.2389 46.5C34.4837 51 30.6861 51.5195 25.6525 51.5C20.6046 51.4818 12.3464 48.5066 10.0988 44C9.70401 43.6323 9.6395 43.1806 9.42454 42.6858C9.20959 42.191 9.09898 41.6572 9.09962 41.1178C9.09772 40.1485 9.45348 39.2127 10.0988 38.4894C10.744 37.7662 11.6334 37.3078 12.5966 37.1996Z" fill="#38373C"/>
<path d="M36.3996 20.7984C36.3996 23.5567 35.3039 26.202 33.3535 28.1523C31.4031 30.1027 28.7579 31.1984 25.9996 31.1984C23.2414 31.1984 20.5961 30.1027 18.6457 28.1523C16.6953 26.202 15.5996 23.5567 15.5996 20.7984C15.5996 18.0402 16.6953 15.3949 18.6457 13.4445C20.5961 11.4941 23.2414 10.3984 25.9996 10.3984C28.7579 10.3984 31.4031 11.4941 33.3535 13.4445C35.3039 15.3949 36.3996 18.0402 36.3996 20.7984Z" fill="#38373C"/>
<path fill-rule="evenodd" clip-rule="evenodd" d="M25.9996 28.5984C28.0683 28.5984 30.0523 27.7767 31.515 26.3139C32.9778 24.8511 33.7996 22.8671 33.7996 20.7984C33.7996 18.7297 32.9778 16.7458 31.515 15.283C30.0523 13.8202 28.0683 12.9984 25.9996 12.9984C23.9309 12.9984 21.947 13.8202 20.4842 15.283C19.0214 16.7458 18.1996 18.7297 18.1996 20.7984C18.1996 22.8671 19.0214 24.8511 20.4842 26.3139C21.947 27.7767 23.9309 28.5984 25.9996 28.5984ZM25.9996 31.1984C28.7579 31.1984 31.4031 30.1027 33.3535 28.1523C35.3039 26.202 36.3996 23.5567 36.3996 20.7984C36.3996 18.0402 35.3039 15.3949 33.3535 13.4445C31.4031 11.4941 28.7579 10.3984 25.9996 10.3984C23.2414 10.3984 20.5961 11.4941 18.6457 13.4445C16.6953 15.3949 15.5996 18.0402 15.5996 20.7984C15.5996 23.5567 16.6953 26.202 18.6457 28.1523C20.5961 30.1027 23.2414 31.1984 25.9996 31.1984Z" fill="#38373C"/>
</svg>
