<svg width="32" height="34" viewBox="0 0 32 34" fill="none" xmlns="http://www.w3.org/2000/svg">
<g clip-path="url(#clip0_373_382)">
<path d="M13.9992 0.800781C11.9836 0.800781 10.0505 1.6015 8.62521 3.02677C7.19993 4.45205 6.39922 6.38514 6.39922 8.40078C6.39922 10.4164 7.19993 12.3495 8.62521 13.7748C10.0505 15.2001 11.9836 16.0008 13.9992 16.0008C16.0149 16.0008 17.948 15.2001 19.3732 13.7748C20.7985 12.3495 21.5992 10.4164 21.5992 8.40078C21.5992 6.38514 20.7985 4.45205 19.3732 3.02677C17.948 1.6015 16.0149 0.800781 13.9992 0.800781ZM4.51632 17.9008C4.01593 17.8988 3.52006 17.9956 3.05716 18.1856C2.59427 18.3757 2.17344 18.6553 1.81881 19.0083C1.46419 19.3613 1.18274 19.7809 0.990615 20.2429C0.79849 20.705 0.699465 21.2004 0.699219 21.7008C0.699219 24.9137 2.28192 27.3362 4.75572 28.9151C6.81912 30.2299 9.49242 30.9576 12.4051 31.1495C12.2017 30.5544 12.0984 29.9297 12.0992 29.3008V21.7008C12.0992 20.2416 12.6483 18.9078 13.5508 17.9008H4.51632ZM13.9992 21.7008C13.9992 20.693 14.3996 19.7264 15.1122 19.0138C15.8249 18.3012 16.7914 17.9008 17.7992 17.9008H27.2992C28.307 17.9008 29.2736 18.3012 29.9862 19.0138C30.6989 19.7264 31.0992 20.693 31.0992 21.7008V29.3008C31.0992 30.3086 30.6989 31.2752 29.9862 31.9878C29.2736 32.7004 28.307 33.1008 27.2992 33.1008H17.7992C16.7914 33.1008 15.8249 32.7004 15.1122 31.9878C14.3996 31.2752 13.9992 30.3086 13.9992 29.3008V21.7008ZM26.3492 27.4008H18.7492C18.4973 27.4008 18.2556 27.5009 18.0775 27.679C17.8993 27.8572 17.7992 28.0988 17.7992 28.3508C17.7992 28.6028 17.8993 28.8444 18.0775 29.0226C18.2556 29.2007 18.4973 29.3008 18.7492 29.3008H26.3492C26.6012 29.3008 26.8428 29.2007 27.021 29.0226C27.1991 28.8444 27.2992 28.6028 27.2992 28.3508C27.2992 28.0988 27.1991 27.8572 27.021 27.679C26.8428 27.5009 26.6012 27.4008 26.3492 27.4008ZM18.7492 21.7008C18.4973 21.7008 18.2556 21.8009 18.0775 21.9791C17.8993 22.1572 17.7992 22.3988 17.7992 22.6508C17.7992 22.9028 17.8993 23.1444 18.0775 23.3226C18.2556 23.5007 18.4973 23.6008 18.7492 23.6008H26.3492C26.6012 23.6008 26.8428 23.5007 27.021 23.3226C27.1991 23.1444 27.2992 22.9028 27.2992 22.6508C27.2992 22.3988 27.1991 22.1572 27.021 21.9791C26.8428 21.8009 26.6012 21.7008 26.3492 21.7008H18.7492Z" fill="#38373C"/>
</g>
<defs>
<clipPath id="clip0_373_382">
<rect width="32" height="34" fill="white"/>
</clipPath>
</defs>
</svg>
