<svg width="36" height="30" viewBox="0 0 36 30" fill="none" xmlns="http://www.w3.org/2000/svg">
<g clip-path="url(#clip0_373_374)">
<path d="M32.2506 0.75H3.75065C1.99315 0.75 0.583984 2.15917 0.583984 3.91667V22.9167C0.583984 23.7565 0.917614 24.562 1.51148 25.1558C2.10534 25.7497 2.9108 26.0833 3.75065 26.0833H11.6673V29.25H24.334V26.0833H32.2506C33.9923 26.0833 35.4015 24.6583 35.4015 22.9167L35.4173 3.91667C35.4173 3.07681 35.0837 2.27136 34.4898 1.6775C33.896 1.08363 33.0905 0.75 32.2506 0.75ZM32.2506 22.9167H3.75065V3.91667H32.2506V22.9167ZM24.334 13.4167L13.2507 19.75V7.08333L24.334 13.4167Z" fill="white"/>
</g>
<defs>
<clipPath id="clip0_373_374">
<rect width="36" height="30" fill="white"/>
</clipPath>
</defs>
</svg>
