<svg width="13" height="10" viewBox="0 0 13 10" fill="none" xmlns="http://www.w3.org/2000/svg">
<path d="M4.16816 6.90112L11.0471 0.307337C11.2608 0.102445 11.5329 0 11.8632 0C12.1936 0 12.4656 0.102445 12.6794 0.307337C12.8931 0.512228 13 0.772999 13 1.08965C13 1.4063 12.8931 1.66707 12.6794 1.87196L4.9843 9.24806C4.75112 9.47157 4.47907 9.58333 4.16816 9.58333C3.85725 9.58333 3.5852 9.47157 3.35202 9.24806L0.320627 6.34232C0.106875 6.13743 0 5.87666 0 5.56001C0 5.24336 0.106875 4.98259 0.320627 4.7777C0.534379 4.5728 0.806427 4.47036 1.13677 4.47036C1.46711 4.47036 1.73916 4.5728 1.95291 4.7777L4.16816 6.90112Z" fill="#5A5A5C"/>
</svg>
